<svg id="Слой_1" enable-background="new 0 0 56 56" height="512" viewBox="0 0 56 56" width="512" xmlns="http://www.w3.org/2000/svg"><g id="XMLID_3166_"><path id="XMLID_18_" d="m45.191 50.566c-2.728 0-9.193-.175-11.495-1.758l-22.704-15.616c-.526-.362-.885-.932-.985-1.563-.1-.632.066-1.284.455-1.791l1.75-2.28c.752-9.521 10.328-11.527 10.426-11.547.273-.056.56.009.786.175s.372.419.402.698c.352 3.242 1.519 5.602 3.469 7.016 3.105 2.252 7.198 1.422 7.239 1.413.425-.091.862.107 1.076.486l7.979 14.168c.568.988 2.588 1.645 3.25 1.796 1.788.254 4.948 1.497 4.948 4.447 0 2.68-2.087 4.344-5.445 4.344-.17.005-.578.012-1.151.012zm-23.191-32.307c-2.257.748-7.434 3.169-7.813 9.727-.012.2-.083.392-.205.551l-1.934 2.52c-.078.102-.075.207-.066.261s.039.155.143.227l22.704 15.615c1.7 1.169 7.95 1.483 11.489 1.395 1.311 0 3.469-.305 3.469-2.344 0-1.95-3.28-2.479-3.313-2.482-.429-.095-3.517-.848-4.624-2.773l-7.641-13.571c-1.524.177-5.108.297-8.088-1.864-2.175-1.578-3.558-4.017-4.121-7.262z"/><path id="XMLID_17_" d="m45.035 47.455c-4.392 0-8.65-1.41-12.317-4.078l-20.117-14.64 1.177-1.617 20.118 14.64c3.321 2.418 7.174 3.695 11.14 3.695 1.617 0 5.377-.015 5.377-.015l.008 2c-.001 0-3.767.015-5.386.015z"/><path id="XMLID_16_" d="m19.652 32.731-1.518-1.303c4.659-5.431-1.155-10.829-1.405-11.056l1.346-1.479c2.614 2.376 6.306 8.326 1.577 13.838z"/><path id="XMLID_15_" d="m40.226 41.796c-2.393 0-4.638-1.302-5.808-3.452l-6.569-12.075 1.757-.956 6.568 12.076c.938 1.725 2.876 2.671 4.812 2.344l1.565-.262.33 1.973-1.565.262c-.365.06-.729.09-1.09.09z"/><path id="XMLID_14_" d="m25.086 33.08c-.435 0-.835-.286-.961-.726-.152-.531.156-1.084.687-1.236l5.696-1.627c.528-.146 1.084.155 1.236.688.151.531-.156 1.084-.688 1.236l-5.696 1.627c-.09.025-.183.038-.274.038z"/><path id="XMLID_13_" d="m34.546 30.722c-.435 0-.835-.286-.961-.726-.151-.531.156-1.084.688-1.236l2.742-.783c.528-.149 1.084.155 1.236.687.151.531-.156 1.084-.688 1.236l-2.742.783c-.092.026-.183.039-.275.039z"/><path id="XMLID_12_" d="m36.223 34.114c-.435 0-.835-.286-.961-.726-.151-.531.156-1.084.688-1.236l2.759-.788c.526-.146 1.084.155 1.236.688.151.531-.156 1.084-.688 1.236l-2.759.788c-.092.026-.184.038-.275.038z"/><path id="XMLID_11_" d="m38.043 37.526c-.435 0-.835-.286-.961-.726-.151-.531.156-1.084.688-1.236l2.842-.812c.526-.145 1.084.155 1.236.688.151.531-.156 1.084-.688 1.236l-2.842.812c-.091.026-.183.038-.275.038z"/><path id="XMLID_10_" d="m27.968 30.787h2v8.73h-2z" transform="matrix(.276 .961 -.961 .276 54.762 -2.391)"/><path id="XMLID_9_" d="m29.297 40.257c-.438 0-.839-.289-.962-.731-.148-.532.163-1.084.695-1.231l2.505-.697c.531-.151 1.083.162 1.231.694s-.163 1.084-.694 1.231l-2.505.697c-.09.025-.181.037-.27.037z"/><path id="XMLID_8_" d="m24.697 14.062c-.127 0-.256-.024-.381-.076-.51-.211-.753-.795-.542-1.306l2.735-6.625c.211-.51.793-.753 1.306-.542.51.211.753.795.542 1.306l-2.735 6.625c-.159.385-.532.618-.925.618z"/><path id="XMLID_7_" d="m33.714 26.791c-.46 0-.874-.319-.976-.787-1.321-6.052 2.289-11.027 2.444-11.235l4.295-5.773c.33-.442.957-.534 1.399-.205.443.33.535.956.206 1.399l-4.294 5.771c-.029.04-3.221 4.47-2.098 9.617.118.54-.224 1.073-.764 1.19-.07.016-.142.023-.212.023z"/><path id="XMLID_6_" d="m22.832 17.993h-11.854c-.552 0-1-.448-1-1s.448-1 1-1h11.854c.552 0 1 .448 1 1s-.448 1-1 1z"/><path id="XMLID_5_" d="m10.194 24.441h-4.982c-.552 0-1-.448-1-1s.448-1 1-1h4.982c.552 0 1 .448 1 1s-.447 1-1 1z"/><path id="XMLID_4_" d="m46.342 50.555h-21.091c-.552 0-1-.447-1-1s.448-1 1-1h21.091c.553 0 1 .447 1 1s-.447 1-1 1z"/><path id="XMLID_3_" d="m15.685 41.796h-6.388c-.552 0-1-.447-1-1s.448-1 1-1h6.387c.552 0 1 .447 1 1s-.447 1-.999 1z"/><path id="XMLID_2_" d="m34.546 30.722c-.435 0-.835-.286-.961-.726-.151-.531.156-1.084.688-1.236l2.742-.783c.528-.149 1.084.155 1.236.687.151.531-.156 1.084-.688 1.236l-2.742.783c-.092.026-.183.039-.275.039z"/></g></svg>