<?xml version="1.0" encoding="UTF-8"?>
<svg xmlns="http://www.w3.org/2000/svg" xmlns:xlink="http://www.w3.org/1999/xlink" version="1.1" id="Capa_1" x="0px" y="0px" viewBox="0 0 512 512" style="enable-background:new 0 0 512 512;" xml:space="preserve" width="512" height="512">
<g>
	<path style="fill:none;stroke:#000000;stroke-width:20;stroke-linecap:round;stroke-linejoin:round;stroke-miterlimit:10;" d="&#10;&#9;&#9;M356.575,385.551l68.305,13.592c13.266,2.64,23.989,12.392,27.871,25.349l2.244,7.489l-10.134,7.444&#10;&#9;&#9;c-8.976,6.593-19.823,10.149-30.96,10.149H271.169c-17.111,0-33.605-6.395-46.243-17.931L75.413,297.521l86.185-95.896&#10;&#9;&#9;c5.512-6.133,15.062-6.329,20.82-0.425l4.202,4.308c3.526,3.615,4.878,8.824,3.555,13.697l-7.455,27.461&#10;&#9;&#9;c-4.041,14.887,0.829,30.771,12.521,40.833l19.066,16.582c10.5,9.037,24.925,12.003,38.138,7.844l29.216-9.197l9.517,32.251&#10;&#9;&#9;C303.846,361.155,328.055,379.876,356.575,385.551z"/>
	<path style="fill:none;stroke:#000000;stroke-width:20;stroke-linecap:round;stroke-linejoin:round;stroke-miterlimit:10;" d="&#10;&#9;&#9;M454.996,431.981l6.026,16.898c2.739,7.68,1.453,16.22-3.426,22.753l-1.255,1.68c-6.941,9.295-17.567,15.129-29.135,15.998&#10;&#9;&#9;l-165.653,12.438c-5.893,0.443-11.816,0.305-17.682-0.41l-21.893-2.67c-18.613-2.27-36.057-10.281-49.908-22.92L14.765,334.545&#10;&#9;&#9;l30.744-33.723l29.904-3.3l149.512,134.122c12.638,11.535,29.132,17.931,46.243,17.931h142.732c11.138,0,21.984-3.556,30.96-10.149&#10;&#9;&#9;L454.996,431.981z"/>
	<path style="fill:none;stroke:#000000;stroke-width:20;stroke-linecap:round;stroke-linejoin:round;stroke-miterlimit:10;" d="&#10;&#9;&#9;M323.069,10L182.414,201.198l4.212,4.304c3.525,3.618,4.878,8.834,3.546,13.702l-7.45,27.465&#10;&#9;&#9;c-4.038,14.88,0.83,30.765,12.523,40.828l19.061,16.581c10.504,9.039,24.923,12.001,38.143,7.85l11.068-3.484l6.415-5.718&#10;&#9;&#9;l92.537-86.537"/>
	
		<line style="fill:none;stroke:#000000;stroke-width:20;stroke-linecap:round;stroke-linejoin:round;stroke-miterlimit:10;" x1="426.219" y1="156.572" x2="497.235" y2="90.16"/>
	<path style="fill:none;stroke:#000000;stroke-width:20;stroke-linecap:round;stroke-linejoin:round;stroke-miterlimit:10;" d="&#10;&#9;&#9;M166.523,197.082v-17.348c0-5.84-2.32-11.441-6.45-15.571l-6.683-6.683c-8.6-8.6-22.542-8.6-31.142,0l0,0&#10;&#9;&#9;c-8.6,8.6-8.6,22.542,0,31.142l26.353,26.353L166.523,197.082z"/>
	
		<line style="fill:none;stroke:#000000;stroke-width:20;stroke-linecap:round;stroke-linejoin:round;stroke-miterlimit:10;" x1="394.227" y1="186.49" x2="394.227" y2="186.49"/>
</g>















</svg>
